#!OML:ASF H:\ManfredETheater\Project 1\Capture day 1\Session 1\subject.ASF
:FULLY-SPECIFIED
:DEGREES
108
root 6.782 24.893 -3.10002 -185.607 -41.7118 195.097
lowerback 33.8962 0.438306 6.63001
upperback 7.616 1.57091 4.36606
thorax -8.69959 -0.105955 0.634921
lowerneck -7.99437 -7.2285 -9.07756
upperneck 13.2901 -9.65314 6.23504
head 6.08223 -4.75197 2.65394
rclavicle -2.41772e-014 -2.08972e-014
rhumerus -25.4908 -1.13872 -39.9133
rradius 60.1477
rwrist -1.6061
rhand -27.229 -3.91344
rfingers 7.12502
rthumb -0.641312 -33.8922
lclavicle -2.41772e-014 -2.08972e-014
lhumerus -44.6623 16.3934 29.7441
lradius 57.5697
lwrist 15.6792
lhand -24.3511 -1.73531
lfingers 7.12502
lthumb 2.13828 28.2337
rfemur -60.2794 -11.2792 21.0588
rtibia 59.0184
rfoot -9.94016 -12.1505
rtoes -22.3031
lfemur -78.5327 7.29567 -28.0285
ltibia 76.0794
lfoot -2.61417 -19.4942
ltoes -6.5259
109
root 6.66211 24.7411 -3.4981 -185.417 -42.1003 194.867
lowerback 33.3327 0.437038 6.49754
upperback 7.59486 1.51845 4.35027
thorax -8.51774 -0.10384 0.698767
lowerneck -7.78956 -7.2819 -9.25309
upperneck 13.3012 -9.72722 6.2394
head 6.06582 -4.8017 2.68249
rclavicle -2.47984e-014 -1.93815e-014
rhumerus -25.8566 -0.571083 -37.765
rradius 60.9431
rwrist -1.68124
rhand -27.2077 -4.12673
rfingers 7.12502
rthumb -0.620648 -34.1056
lclavicle -2.47984e-014 -1.93815e-014
lhumerus -45.8009 15.523 27.2946
lradius 57.0803
lwrist 16.2403
lhand -24.393 -1.48109
lfingers 7.12502
lthumb 2.09782 28.4883
rfemur -59.5504 -11.4731 20.5957
rtibia 58.1181
rfoot -8.76323 -12.2691
rtoes -21.9807
lfemur -77.208 6.9007 -27.4259
ltibia 72.9307
lfoot -1.07934 -19.5946
ltoes -7.65436
110
root 6.53828 24.5747 -3.89968 -185.208 -42.4688 194.586
lowerback 32.6927 0.441892 6.30501
upperback 7.56874 1.45412 4.34062
thorax -8.31245 -0.104508 0.80414
lowerneck -7.5923 -7.32282 -9.42597
upperneck 13.3622 -9.78431 6.20774
head 6.06326 -4.84618 2.70012
rclavicle 1.50082e-014 -2.31584e-014
rhumerus -26.2002 0.125003 -35.6322
rradius 61.7915
rwrist -1.7561
rhand -27.1178 -4.27421
rfingers 7.12502
rthumb -0.533825 -34.2533
lclavicle 1.50082e-014 -2.31584e-014
lhumerus -46.892 14.5102 24.9819
lradius 56.5932
lwrist 16.8405
lhand -24.4245 -1.31904
lfingers 7.12502
lthumb 2.06742 28.6507
rfemur -58.7868 -11.6373 20.0885
rtibia 57.1665
rfoot -7.4762 -12.3592
rtoes -21.6974
lfemur -75.77 6.44461 -26.746
ltibia 69.9059
lfoot 0.424499 -19.5012
ltoes -8.70709
111
root 6.41002 24.3939 -4.30498 -184.989 -42.8014 194.259
lowerback 31.7013 0.489124 5.98979
upperback 7.95502 1.36992 4.33095
thorax -8.21291 -0.0902231 1.02716
lowerneck -7.39925 -7.35391 -9.60858
upperneck 13.4563 -9.82816 6.15981
head 6.07057 -4.88646 2.71491
rclavicle 2.00276e-014 -9.93923e-015
rhumerus -26.5336 0.942379 -33.5279
rradius 62.7313
rwrist -1.86854
rhand -26.9512 -4.37863
rfingers 7.12502
rthumb -0.372961 -34.358
lclavicle 2.00276e-014 -9.93923e-015
lhumerus -47.9417 13.3233 22.8401
lradius 56.1483
lwrist 17.3573
lhand -24.4615 -1.21211
lfingers 7.12502
lthumb 2.03162 28.758
rfemur -57.9767 -11.7578 19.5447
rtibia 56.1611
rfoot -6.12152 -12.4051
rtoes -21.4246
lfemur -74.2323 5.94465 -26.0088
ltibia 67.0431
lfoot 1.80768 -19.193
ltoes -9.67509
112
root 6.2772 24.1999 -4.71424 -184.788 -43.092 193.897
lowerback 30.9688 0.509227 5.71407
upperback 7.89922 1.30326 4.31796
thorax -7.94663 -0.0909227 1.18446
lowerneck -7.21744 -7.37701 -9.79697
upperneck 13.5834 -9.86076 6.09435
head 6.08883 -4.92328 2.72536
rclavicle 1.38503e-013 -2.54444e-014
rhumerus -26.8691 1.86922 -31.458
rradius 63.7867
rwrist -2.08902
rhand -26.7259 -4.42696
rfingers 7.12502
rthumb -0.15531 -34.4066
lclavicle 1.38503e-013 -2.54444e-014
lhumerus -48.9444 11.971 20.9021
lradius 55.7577
lwrist 17.6442
lhand -24.5028 -1.17366
lfingers 7.12502
lthumb 1.99174 28.7968
rfemur -57.0854 -11.8217 18.9722
rtibia 55.0947
rfoot -4.73032 -12.4059
rtoes -21.1713
lfemur -72.5869 5.41801 -25.2322
ltibia 64.3715
lfoot 3.00729 -18.6511
ltoes -10.5096
113
root 6.13978 23.9934 -5.12742 -184.634 -43.3261 193.519
lowerback 30.2137 0.544196 5.41895
upperback 7.84835 1.25034 4.30653
thorax -7.66084 -0.086129 1.34871
lowerneck -7.04411 -7.39555 -9.99617
upperneck 13.7384 -9.88762 6.02261
head 6.1172 -4.95891 2.7354
rclavicle -1.94809e-014 3.78685e-014
rhumerus -27.2171 2.88893 -29.4285
rradius 64.9666
rwrist -2.42622
rhand -26.4664 -4.41848
rfingers 7.12502
rthumb 0.0952796 -34.3982
lclavicle -1.94809e-014 3.78685e-014
lhumerus -49.9048 10.4177 19.2129
lradius 55.4747
lwrist 17.658
lhand -24.5637 -1.1423
lfingers 7.12502
lthumb 1.93293 28.8287
rfemur -56.0864 -11.8151 18.3902
rtibia 53.9584
rfoot -3.3283 -12.3545
rtoes -20.95
lfemur -70.8283 4.88654 -24.4297
ltibia 61.9106
lfoot 3.99032 -17.8658
ltoes -11.2554
114
root 5.99767 23.7753 -5.54437 -184.542 -43.4977 193.127
lowerback 29.4563 0.607168 5.12844
upperback 7.80012 1.23634 4.27666
thorax -7.36633 -0.0640451 1.47555
lowerneck -6.84804 -7.42389 -10.1516
upperneck 13.9094 -9.93847 5.9497
head 6.14642 -5.00526 2.73661
rclavicle -4.23411e-014 6.6891e-014
rhumerus -27.6464 3.95309 -27.4635
rradius 66.2732
rwrist -2.86689
rhand -26.1891 -4.34495
rfingers 7.12502
rthumb 0.363121 -34.3244
lclavicle -4.23411e-014 6.6891e-014
lhumerus -50.776 8.63975 17.7875
lradius 55.3165
lwrist 17.3581
lhand -24.6343 -1.14448
lfingers 7.12502
lthumb 1.86478 28.8271
rfemur -54.9677 -11.7368 17.8042
rtibia 52.774
rfoot -1.95018 -12.2402
rtoes -20.7512
lfemur -68.9554 4.36122 -23.6229
ltibia 59.6914
lfoot 4.77695 -16.8401
ltoes -11.8904
